<svg xmlns="http://www.w3.org/2000/svg" viewBox="0 0 640 480" shape-rendering="crispEdges">
  <rect width="640" height="480" fill="#eee6d8"/>
  <rect x="32" y="32" width="576" height="416" fill="#ded1bb"/>
  <rect x="48" y="48" width="544" height="384" fill="#f7f0e3"/>
  <path d="M80 112h32V80h32v32h64v-16h32v16h160V96h32v16h64V80h32v32h32v256h-32v32h-80v16H192v-16h-80v-32H80z" fill="#c7d9d3"/>
  <path d="M112 336h416v32H112z" fill="#738f89"/>
  <path d="M144 304h352v32H144z" fill="#96aaa3"/>
  <path d="M160 288h320v16H160z" fill="#236f75"/>
  <g fill="#d8e4df">
    <rect x="176" y="288" width="16" height="48"/><rect x="240" y="288" width="16" height="48"/>
    <rect x="304" y="288" width="16" height="48"/><rect x="368" y="288" width="16" height="48"/>
    <rect x="432" y="288" width="16" height="48"/>
  </g>
  <g>
    <rect x="176" y="176" width="96" height="96" fill="#268c94"/>
    <rect x="192" y="160" width="64" height="16" fill="#39b7bd"/>
    <rect x="160" y="192" width="16" height="48" fill="#39b7bd"/>
    <rect x="272" y="192" width="48" height="32" fill="#39b7bd"/>
    <rect x="192" y="192" width="16" height="16" fill="#18343a"/>
    <rect x="240" y="192" width="16" height="16" fill="#18343a"/>
    <rect x="192" y="240" width="64" height="16" fill="#17636b"/>
    <rect x="192" y="272" width="24" height="32" fill="#39b7bd"/>
    <rect x="232" y="272" width="24" height="32" fill="#39b7bd"/>
  </g>
  <g transform="translate(390 182) rotate(14)">
    <rect x="0" y="0" width="80" height="80" fill="#c84f6d"/>
    <rect x="16" y="-16" width="48" height="16" fill="#e66b88"/>
    <rect x="-32" y="24" width="32" height="24" fill="#e66b88"/>
    <rect x="16" y="16" width="16" height="16" fill="#3d2630"/>
    <rect x="48" y="16" width="16" height="16" fill="#3d2630"/>
    <rect x="16" y="64" width="20" height="28" fill="#e66b88"/>
    <rect x="48" y="64" width="20" height="28" fill="#e66b88"/>
  </g>
  <path d="M320 192h32v16h32v16h-32v16h-32v-16h-32v-16h32z" fill="#d59b2d"/>
  <path d="M472 128h16v16h16v16h-16v16h-16v-16h-16v-16h16zM120 144h16v16h-16zM520 256h16v16h-16z" fill="#268c94"/>
  <rect x="48" y="48" width="544" height="8" fill="#268c94" opacity=".8"/>
</svg>
